# xmcd
#
# Track frame offsets: 
#        150
#        26477
#        38387
#        51476
#        80040
#        98406
#        117826
#        140200
#        154591
#        188871
#        211416
#        235357
#        267022
#        290251
#        317418
#
# Disc length: 4465 seconds
#
# Revision: 0
# Processed by: cddbd v1.5.2PL0 Copyright (c) Steve Scherf et al.
# Submitted via: ExactAudioCopy v0.99pb5
#
DISCID=c9116f0f
DTITLE=Ró¿ni wykonawcy - Piekarskie Wieczory Bluesowe vol.2 CD2
DYEAR=2007
DGENRE=Blues
TTITLE0=01.Phil Guy-Lonesome Blues
TTITLE1=02.Billy "Harp" Hamilton and Lowriders - Walkin' The Dog
TTITLE2=03.Tadeusz Pocieszynski and Bluesmobile - Zimny pot
TTITLE3=04.Lester Kidson - I Miss You
TTITLE4=05.Candye Cane - A Could Fall For You
TTITLE5=06.Keith Thompson and Strangebrew -  Preachin' The Blues
TTITLE6=07.Jan "Kyks" Skrzek - Przy ulicy Mariackiej
TTITLE7=08.Andy Egert - Fire On The Crossroad
TTITLE8=09.Chuck Frazier - Dust My Blues
TTITLE9=10.Family Style - Looking For Somebody
TTITLE10=11.Fernando Noronha and Black Soul - House Of Blues
TTITLE11=12.Steve Fister - Master Plan
TTITLE12=13.Zbig Band - Nasze miejsce
TTITLE13=14.Korek - Bal u Pana Boga
TTITLE14=15.Irek Glyk - Multisound - Swing
EXTD=
EXTT0=
EXTT1=
EXTT2=
EXTT3=
EXTT4=
EXTT5=
EXTT6=
EXTT7=
EXTT8=
EXTT9=
EXTT10=
EXTT11=
EXTT12=
EXTT13=
EXTT14=
PLAYORDER=
